<svg id="Layer_1" enable-background="new 0 0 512 512" height="512" viewBox="0 0 512 512" width="512" xmlns="http://www.w3.org/2000/svg"><g><path d="m7.5 254.5h497v150h-497z" fill="#2accf4"/><path d="m474.5 254.5h30v150h-30z" fill="#22b3eb"/><path d="m7.5 224.5h497v30h-497z" fill="#8aeeff"/><path d="m474.5 224.5h30v30h-30z" fill="#63e5ff"/><path d="m119 400h-30v-258c0-8.284 6.716-15 15-15 8.284 0 15 6.716 15 15z" fill="#f1f1f1"/><path d="m235 400h-30v-258c0-8.284 6.716-15 15-15 8.284 0 15 6.716 15 15z" fill="#f1f1f1"/><path d="m504.5 345.5c-20.711 0-20.711 17.341-41.423 17.341s-20.711-17.341-41.423-17.341c-20.709 0-20.709 17.341-41.417 17.341-20.709 0-20.709-17.341-41.418-17.341-20.708 0-20.708 17.341-41.417 17.341-20.708 0-20.708-17.341-41.416-17.341-20.705 0-20.705 17.341-41.411 17.341-20.708 0-20.708-17.341-41.415-17.341-20.708 0-20.708 17.341-41.417 17.341-20.708 0-20.708-17.341-41.416-17.341-20.707 0-20.707 17.341-41.414 17.341s-20.707-17.341-41.413-17.341v103c0 30.928 25.072 56 56 56h385c30.928 0 56-25.072 56-56z" fill="#b9f5ff"/><g fill="#8aeeff"><path d="m267.402 362.841c6.703 0 11.232-1.821 15-4.279-7.873-5.135-12.411-13.062-26.416-13.062-6.703 0-11.231 1.821-14.999 4.279 7.872 5.135 12.411 13.062 26.415 13.062z"/><path d="m350.237 362.841c6.703 0 11.232-1.821 15-4.278-7.874-5.135-12.412-13.063-26.418-13.063-6.703 0-11.231 1.821-15 4.279 7.874 5.134 12.412 13.062 26.418 13.062z"/><path d="m184.575 362.841c6.703 0 11.231-1.821 14.999-4.279-7.872-5.135-12.411-13.062-26.415-13.062-6.703 0-11.232 1.821-15 4.279 7.874 5.135 12.412 13.062 26.416 13.062z"/><path d="m433.077 362.841c6.703 0 11.232-1.82 15-4.277-7.876-5.135-12.414-13.064-26.423-13.064-6.703 0-11.231 1.821-14.999 4.278 7.876 5.135 12.414 13.063 26.422 13.063z"/><path d="m474.5 360.541v87.959c0 30.928-25.072 56-56 56h30c30.928 0 56-25.072 56-56v-103c-15.988 0-19.641 10.328-30 15.041z"/><path d="m18.913 362.841c6.703 0 11.232-1.821 15-4.279-7.872-5.135-12.41-13.062-26.413-13.062v15.045c3.058 1.39 6.695 2.296 11.413 2.296z"/><path d="m101.743 362.841c6.703 0 11.232-1.821 15-4.279-7.873-5.135-12.411-13.062-26.416-13.062-6.703 0-11.231 1.821-15 4.279 7.873 5.135 12.411 13.062 26.416 13.062z"/></g><g fill="#d0d0d0"><path d="m119 154.5h86v30h-86z"/><path d="m119 224.5h86v30h-86z"/><path d="m119 294.5h86v30h-86z"/></g><circle cx="398" cy="91" fill="#ffd54f" r="48"/><path d="m398 43c-5.24 0-10.279.851-15 2.404 19.161 6.3 33 24.327 33 45.596s-13.839 39.296-33 45.596c4.721 1.552 9.76 2.404 15 2.404 26.51 0 48-21.49 48-48s-21.49-48-48-48z" fill="#ffc128"/><g><path d="m504.5 217h-23.5c-4.142 0-7.5 3.358-7.5 7.5s3.358 7.5 7.5 7.5h16v15h-254.5v-15h203.5c4.142 0 7.5-3.358 7.5-7.5s-3.358-7.5-7.5-7.5h-203.5v-75c0-6.017-2.346-11.668-6.587-15.894-4.245-4.26-9.896-6.606-15.913-6.606-12.407 0-22.5 10.093-22.5 22.5v5h-71v-5c0-6.017-2.346-11.668-6.587-15.894-4.245-4.26-9.896-6.606-15.913-6.606-12.407 0-22.5 10.093-22.5 22.5v17.974c0 4.142 3.358 7.5 7.5 7.5s7.5-3.358 7.5-7.5v-17.974c0-4.136 3.364-7.5 7.5-7.5 2 0 3.878.779 5.306 2.213 1.415 1.409 2.194 3.287 2.194 5.287v202.937c-3.804-2.807-8.486-5.416-15-6.455v-146.918c0-4.142-3.358-7.5-7.5-7.5s-7.5 3.358-7.5 7.5v25.436h-74c-4.142 0-7.5 3.358-7.5 7.5v224c0 35.014 28.486 63.5 63.5 63.5h385c35.014 0 63.5-28.486 63.5-63.5v-224c0-4.142-3.358-7.5-7.5-7.5zm-292-75c0-4.135 3.364-7.5 7.5-7.5 2 0 3.878.779 5.306 2.213 1.415 1.409 2.194 3.287 2.194 5.287v208.837c-3.515 2.712-6.938 4.505-12.925 4.505-.732 0-1.415-.035-2.075-.087zm-15 105h-71v-15h71zm0 15v25h-71v-25zm-71 40h71v15h-71zm71-85h-71v-25h71zm-71 115h71v15.435c-5.355-4.435-12.173-9.435-24.34-9.435-13.08 0-19.979 5.778-25.524 10.42-4.798 4.018-8.264 6.921-15.893 6.921-2.003 0-3.714-.205-5.243-.573zm71-170v15h-71v-15zm-182.5 100h66.5v77.003c-7.658 1.855-12.556 5.952-16.695 9.418-4.797 4.018-8.264 6.92-15.892 6.92-7.627 0-11.094-2.903-15.891-6.92-4.371-3.661-9.6-8.016-18.022-9.699v-76.722zm0-30h66.5v15h-66.5zm482 216.5c0 26.743-21.757 48.5-48.5 48.5h-385c-26.743 0-48.5-21.757-48.5-48.5v-94.224c3.11 1.221 5.51 3.232 8.391 5.644 5.543 4.643 12.443 10.421 25.522 10.421s19.979-5.778 25.522-10.42c4.797-4.018 8.264-6.921 15.892-6.921s11.095 2.903 15.893 6.921c2.567 2.15 5.435 4.537 9.062 6.487.119.068.24.131.363.193 4.144 2.163 9.276 3.741 16.099 3.741 13.08 0 19.979-5.778 25.523-10.42 4.798-4.018 8.265-6.921 15.894-6.921 7.628 0 11.095 2.903 15.893 6.921 3.525 2.952 7.605 6.356 13.465 8.449.117.041.232.083.351.118 3.282 1.129 7.105 1.853 11.706 1.853 13.079 0 19.978-5.778 25.521-10.421 4.797-4.018 8.263-6.92 15.89-6.92 7.628 0 11.095 2.903 15.893 6.921 5.544 4.643 12.444 10.42 25.523 10.42 2.022 0 3.988-.141 5.844-.418 4.097-.613 6.921-4.431 6.308-8.527s-4.434-6.918-8.527-6.308c-1.125.168-2.344.253-3.625.253-7.628 0-11.095-2.903-15.893-6.921-5.544-4.643-12.444-10.42-25.523-10.42-5.459 0-9.83 1.014-13.486 2.525v-78.526h254.499v76.721c-8.424 1.683-13.654 6.038-18.026 9.699-4.799 4.018-8.266 6.921-15.896 6.921s-11.098-2.903-15.896-6.921c-5.545-4.643-12.445-10.42-25.526-10.42-13.08 0-19.979 5.778-25.523 10.42-4.798 4.018-8.265 6.921-15.894 6.921s-11.096-2.903-15.895-6.921c-5.544-4.643-12.444-10.42-25.524-10.42-4.077 0-7.743.547-11.206 1.673-3.939 1.281-6.094 5.512-4.813 9.452 1.281 3.939 5.512 6.095 9.452 4.813 1.941-.631 4.089-.938 6.567-.938 7.629 0 11.096 2.903 15.894 6.921 5.544 4.643 12.444 10.42 25.524 10.42s19.979-5.778 25.524-10.42c4.798-4.018 8.264-6.921 15.893-6.921 7.63 0 11.098 2.903 15.896 6.921 5.545 4.642 12.445 10.42 25.526 10.42s19.981-5.778 25.526-10.42c2.882-2.414 5.284-4.425 8.396-5.646v94.225z"/><path d="m398 35.5c-30.603 0-55.5 24.897-55.5 55.5s24.897 55.5 55.5 55.5 55.5-24.897 55.5-55.5-24.897-55.5-55.5-55.5zm0 96c-22.332 0-40.5-18.168-40.5-40.5s18.168-40.5 40.5-40.5 40.5 18.168 40.5 40.5-18.168 40.5-40.5 40.5z"/><path d="m398 29c4.142 0 7.5-3.358 7.5-7.5v-14c0-4.142-3.358-7.5-7.5-7.5s-7.5 3.358-7.5 7.5v14c0 4.142 3.358 7.5 7.5 7.5z"/><path d="m391 159.5v14c0 4.142 3.358 7.5 7.5 7.5s7.5-3.358 7.5-7.5v-14c0-4.142-3.358-7.5-7.5-7.5s-7.5 3.358-7.5 7.5z"/><path d="m357.005 34.494c1.389 2.406 3.91 3.751 6.502 3.751 1.272 0 2.563-.324 3.743-1.006 3.587-2.071 4.816-6.658 2.745-10.245l-7-12.124c-2.071-3.587-6.66-4.816-10.245-2.745-3.587 2.071-4.816 6.658-2.745 10.245z"/><path d="m429.183 143.511c-3.587 2.071-4.816 6.658-2.745 10.245l7 12.124c1.389 2.406 3.91 3.751 6.502 3.751 1.272 0 2.563-.324 3.743-1.006 3.587-2.071 4.816-6.658 2.745-10.245l-7-12.124c-2.071-3.588-6.66-4.817-10.245-2.745z"/><path d="m322.37 55.495 12.124 7c1.181.682 2.471 1.006 3.743 1.006 2.592 0 5.113-1.345 6.502-3.751 2.071-3.587.842-8.174-2.745-10.245l-12.124-7c-3.587-2.072-8.174-.843-10.245 2.745-2.071 3.587-.842 8.174 2.745 10.245z"/><path d="m454.256 131.062 12.124 7c1.181.682 2.471 1.006 3.743 1.006 2.592 0 5.113-1.345 6.502-3.751 2.071-3.587.842-8.174-2.745-10.245l-12.124-7c-3.587-2.072-8.174-.843-10.245 2.745-2.072 3.587-.843 8.174 2.745 10.245z"/><path d="m315 98h14c4.142 0 7.5-3.358 7.5-7.5s-3.358-7.5-7.5-7.5h-14c-4.142 0-7.5 3.358-7.5 7.5s3.358 7.5 7.5 7.5z"/><path d="m459.5 90c0 4.142 3.358 7.5 7.5 7.5h14c4.142 0 7.5-3.358 7.5-7.5s-3.358-7.5-7.5-7.5h-14c-4.142 0-7.5 3.358-7.5 7.5z"/><path d="m334.494 118.505-12.124 7c-3.587 2.071-4.816 6.658-2.745 10.245 1.389 2.406 3.91 3.751 6.502 3.751 1.272 0 2.563-.325 3.743-1.006l12.124-7c3.587-2.071 4.816-6.658 2.745-10.245s-6.66-4.815-10.245-2.745z"/><path d="m457.513 63.068c1.272 0 2.563-.325 3.743-1.006l12.124-7c3.587-2.071 4.816-6.658 2.745-10.245-2.071-3.588-6.66-4.815-10.245-2.745l-12.124 7c-3.587 2.071-4.816 6.658-2.745 10.245 1.389 2.406 3.91 3.751 6.502 3.751z"/><path d="m357.005 146.506-7 12.124c-2.071 3.587-.842 8.174 2.745 10.245 1.181.682 2.471 1.006 3.743 1.006 2.592 0 5.113-1.345 6.502-3.751l7-12.124c2.071-3.587.842-8.174-2.745-10.245-3.588-2.073-8.174-.843-10.245 2.745z"/><path d="m428.317 36.989c1.181.682 2.471 1.006 3.743 1.006 2.592 0 5.113-1.345 6.502-3.751l7-12.124c2.071-3.587.842-8.174-2.745-10.245-3.587-2.072-8.174-.843-10.245 2.745l-7 12.124c-2.072 3.587-.843 8.174 2.745 10.245z"/><path d="m120 396.5h-30c-4.142 0-7.5 3.358-7.5 7.5s3.358 7.5 7.5 7.5h30c4.142 0 7.5-3.358 7.5-7.5s-3.358-7.5-7.5-7.5z"/><path d="m422 440.5h-40c-4.142 0-7.5 3.358-7.5 7.5s3.358 7.5 7.5 7.5h40c4.142 0 7.5-3.358 7.5-7.5s-3.358-7.5-7.5-7.5z"/><path d="m336 411.5h-84c-4.142 0-7.5 3.358-7.5 7.5s3.358 7.5 7.5 7.5h84c4.142 0 7.5-3.358 7.5-7.5s-3.358-7.5-7.5-7.5z"/><path d="m200 433.5h-56c-4.142 0-7.5 3.358-7.5 7.5s3.358 7.5 7.5 7.5h56c4.142 0 7.5-3.358 7.5-7.5s-3.358-7.5-7.5-7.5z"/></g></g></svg>